#!OML:ASF G:\JayActor3\Patient Classification 1\Patient 1\Session 6\male.ASF
:FULLY-SPECIFIED
:DEGREES
902
root -13.6531 16.3664 2.79537 356.495 -43.6612 -358.808
lowerback 0.927157 -7.42182 -4.66175
upperback 2.80421 -9.97549 2.31949
thorax 3.60275 -5.16738 4.64619
lowerneck 10.3086 -11.3238 -3.1588
upperneck -1.89731 -15.2998 4.02096
head -1.76756 -7.7333 2.45354
rclavicle 1.42081e-013 -2.62396e-014
rhumerus -38.9542 3.28296 -80.2057
rradius 38.4573
rwrist 2.99534
rhand -22.3209 -10.4953
rfingers 7.12502
rthumb 4.09887 -40.4357
lclavicle 1.42081e-013 -2.62396e-014
lhumerus -29.2004 -1.08052 86.2709
lradius 32.877
lwrist 26.1339
lhand -19.1159 3.28137
lfingers 7.12502
lthumb 7.19325 33.1391
rfemur -21.5388 2.77972 23.9872
rtibia 43.965
rfoot -24.2698 -19.6289
rtoes 2.52284
lfemur 19.2403 12.7938 -16.374
ltibia 19.2433
lfoot -14.5169 10.0932
ltoes -8.38871
903
root -13.7475 16.3919 2.8858 356.2 -43.5104 -358.532
lowerback 0.688715 -7.24916 -4.50785
upperback 2.68424 -9.73556 2.35713
thorax 3.56122 -5.03875 4.59458
lowerneck 10.1434 -10.6908 -2.67614
upperneck -1.46021 -14.4427 2.9731
head -1.74336 -7.27779 1.99847
rclavicle -1.68967e-014 -2.38542e-015
rhumerus -39.1552 3.06695 -80.1671
rradius 38.7317
rwrist 2.78949
rhand -22.2339 -10.5988
rfingers 7.12502
rthumb 4.18294 -40.5374
lclavicle -1.68967e-014 -2.38542e-015
lhumerus -29.7611 -0.669663 86.0581
lradius 31.8493
lwrist 25.6377
lhand -19.1127 3.5079
lfingers 7.12502
lthumb 7.19634 33.3655
rfemur -20.6374 2.61455 23.7839
rtibia 43.5534
rfoot -24.5625 -19.4344
rtoes 3.14423
lfemur 18.5245 13.4574 -15.8837
ltibia 21.4305
lfoot -13.2217 9.27929
ltoes -8.31724
904
root -13.8407 16.4165 2.97397 355.914 -43.419 -358.225
lowerback 0.445473 -7.03521 -4.39381
upperback 2.56647 -9.44098 2.40633
thorax 3.52817 -4.88463 4.57904
lowerneck 10.0547 -10.0589 -2.1928
upperneck -1.13638 -13.5868 1.90569
head -1.75792 -6.82367 1.54969
rclavicle 8.05575e-014 -2.06736e-014
rhumerus -39.3229 2.9131 -80.1216
rradius 39.0212
rwrist 2.60406
rhand -22.1983 -10.6115
rfingers 7.12502
rthumb 4.21732 -40.5495
lclavicle 8.05575e-014 -2.06736e-014
lhumerus -30.2633 -0.250782 85.8114
lradius 30.8795
lwrist 25.1564
lhand -19.1032 3.48282
lfingers 7.12502
lthumb 7.20553 33.3401
rfemur -19.7994 2.49738 23.5603
rtibia 43.156
rfoot -24.842 -19.2278
rtoes 3.75203
lfemur 17.6747 14.1255 -15.4476
ltibia 23.7606
lfoot -11.8319 8.62909
ltoes -8.44941
905
root -13.9319 16.4399 3.06016 355.627 -43.3694 -357.885
lowerback 0.215101 -6.78568 -4.31815
upperback 2.45434 -9.09985 2.46659
thorax 3.49733 -4.70897 4.60029
lowerneck 10.0489 -9.44541 -1.72303
upperneck -0.926984 -12.7574 0.839284
head -1.81054 -6.38311 1.11448
rclavicle -1.31297e-013 1.66979e-014
rhumerus -39.4481 2.80914 -80.0588
rradius 39.3162
rwrist 2.44402
rhand -22.1788 -10.5817
rfingers 7.12502
rthumb 4.23615 -40.5194
lclavicle -1.31297e-013 1.66979e-014
lhumerus -30.7263 0.142573 85.5531
lradius 30.012
lwrist 24.7572
lhand -19.1329 3.25524
lfingers 7.12502
lthumb 7.17684 33.1135
rfemur -19.012 2.40732 23.3129
rtibia 42.7727
rfoot -25.1041 -19.0156
rtoes 4.29805
lfemur 16.7029 14.7789 -15.0743
ltibia 26.2269
lfoot -10.3939 8.12236
ltoes -8.75613
906
root -14.0203 16.4617 3.14497 355.316 -43.3361 -357.513
lowerback 0.0234568 -6.50822 -4.27305
upperback 2.35614 -8.72314 2.53471
thorax 3.46152 -4.51702 4.65304
lowerneck 10.1291 -8.87173 -1.25646
upperneck -0.833602 -11.9835 -0.228714
head -1.90481 -5.96936 0.688782
rclavicle -2.0276e-014 7.15625e-015
rhumerus -39.5221 2.7432 -79.9698
rradius 39.61
rwrist 2.30563
rhand -22.1848 -10.5246
rfingers 7.12502
rthumb 4.23033 -40.4623
lclavicle -2.0276e-014 7.15625e-015
lhumerus -31.1645 0.479025 85.3056
lradius 29.298
lwrist 24.4682
lhand -19.1713 2.90309
lfingers 7.12502
lthumb 7.13978 32.7627
rfemur -18.2427 2.3037 23.0358
rtibia 42.3976
rfoot -25.3406 -18.7889
rtoes 4.76319
lfemur 15.6419 15.3681 -14.7745
ltibia 28.816
lfoot -9.03141 7.71234
ltoes -8.85382
907
root -14.1053 16.4812 3.22976 354.989 -43.3023 -357.16
lowerback -0.114239 -6.2103 -4.21164
upperback 2.28402 -8.32221 2.61631
thorax 3.41931 -4.31367 4.71775
lowerneck 10.294 -8.34268 -0.828427
upperneck -0.841673 -11.2756 -1.2586
head -2.0337 -5.58769 0.286516
rclavicle 1.73937e-014 -1.90833e-014
rhumerus -39.5415 2.70077 -79.8441
rradius 39.9029
rwrist 2.18682
rhand -22.2176 -10.4626
rfingers 7.12502
rthumb 4.19866 -40.4009
lclavicle 1.73937e-014 -1.90833e-014
lhumerus -31.5882 0.739582 85.0902
lradius 28.7719
lwrist 24.3006
lhand -19.2128 2.53247
lfingers 7.12502
lthumb 7.09974 32.3934
rfemur -17.4406 2.15611 22.7618
rtibia 42.0094
rfoot -25.5777 -18.5156
rtoes 5.244
lfemur 14.5256 15.8763 -14.5068
ltibia 31.5204
lfoot -7.8483 7.34981
ltoes -8.73909
908
root -14.186 16.498 3.31552 354.652 -43.2465 -356.872
lowerback -0.175592 -5.9016 -4.0902
upperback 2.24602 -7.91158 2.71509
thorax 3.36251 -4.10516 4.77474
lowerneck 10.5365 -7.86237 -0.450913
upperneck -0.939526 -10.6409 -2.22608
head -2.19284 -5.24139 -0.0861938
rclavicle 3.69739e-014 1.19271e-014
rhumerus -39.5043 2.68472 -79.6823
rradius 40.1903
rwrist 2.07478
rhand -22.2736 -10.4305
rfingers 7.12502
rthumb 4.14454 -40.3699
lclavicle 3.69739e-014 1.19271e-014
lhumerus -32.0057 0.913941 84.9199
lradius 28.4539
lwrist 24.2484
lhand -19.2569 2.22783
lfingers 7.12502
lthumb 7.05714 32.0902
rfemur -16.5603 1.92864 22.5193
rtibia 41.5789
rfoot -25.76 -18.2286
rtoes 5.58561
lfemur 13.3785 16.2788 -14.2381
ltibia 34.332
lfoot -6.93259 7.02572
ltoes -8.4954
